<svg width="44" height="32" viewBox="0 0 44 32" fill="none" xmlns="http://www.w3.org/2000/svg">
<g id="Subtract">
<path d="M12.2541 0C12.5948 0.141933 12.9431 0.282926 13.2988 0.422804C20.0217 3.0664 29.5238 5.35397 42.3425 6.05359C42.9957 7.18343 43.4761 8.42916 43.7469 9.75317C27.8564 8.33498 17.3352 5.94992 10.6362 3.53645C7.22793 2.30854 4.84106 1.08462 3.24841 0H12.2541Z" fill="#0F54DA"/>
<path d="M40.1105 3.24033C37.9646 1.22856 35.0994 0 31.9524 0H20.4432C25.6947 1.47102 32.1987 2.66748 40.1105 3.24033Z" fill="#0F54DA"/>
<path d="M1.59148 2.07789C0.989163 1.65623 0.456676 1.22979 0 0.801639V8.97368C7.23806 12.255 15.744 18.5595 24.925 32H28.3304C28.2038 31.7871 28.0794 31.5741 27.9574 31.3611C26.0628 28.052 24.6377 24.5515 24.6471 21.5285C24.652 19.9797 25.0342 18.4933 25.9818 17.2484C26.9283 16.005 28.3404 15.1317 30.1739 14.624C33.2649 13.7681 37.7633 13.8924 44 15.2129V12.4522C27.7057 11.0275 16.8052 8.58765 9.76257 6.05038C6.08599 4.72581 3.4264 3.36247 1.59148 2.07789Z" fill="#0F54DA"/>
<path d="M31.9524 32H31.4259C31.0023 31.341 30.5983 30.6787 30.22 30.018C28.3817 26.8074 27.259 23.8218 27.2662 21.5369C27.2696 20.4317 27.5367 19.5587 28.0519 18.8819C28.5683 18.2036 29.4325 17.5928 30.8612 17.1972C33.4493 16.4806 37.6311 16.5422 44 17.9389V19.7333C44 20.1884 43.9757 20.6378 43.9282 21.08C40.7402 19.9363 38.2564 19.6798 36.4566 20.4124C34.2314 21.3182 33.5545 23.464 33.5767 25.5863C33.5961 27.4326 34.1227 29.5559 34.8638 31.6394C33.9315 31.875 32.9563 32 31.9524 32Z" fill="#0F54DA"/>
<path d="M37.3215 30.7175C40.1369 29.2881 42.3255 26.7695 43.3549 23.7038C40.17 22.5198 38.3631 22.5082 37.4288 22.8885C36.6571 23.2026 36.1787 23.9435 36.1956 25.5578C36.2105 26.9808 36.6327 28.7776 37.3215 30.7175Z" fill="#0F54DA"/>
<path d="M0 28.7871V32H3.50706C2.28483 30.7206 1.05874 29.6324 0 28.7871Z" fill="#0F54DA"/>
<path d="M0 25.4808C1.78385 26.7168 4.55626 29.004 7.04237 32L11.4627 32C7.16433 25.6247 2.85654 22.2475 0 20.7243V25.4808Z" fill="#0F54DA"/>
<path d="M0 17.7733C3.60315 19.3329 9.27244 23.53 14.604 32H21.7161C13.6533 20.618 6.26136 14.976 0 11.9118V17.7733Z" fill="#0F54DA"/>
</g>
</svg>
