<svg width="56" height="18" viewBox="0 0 56 18" fill="none" xmlns="http://www.w3.org/2000/svg">
<g id="Visa Logo">
<path id="Visa" d="M24.2765 17.7H19.707L22.5629 0.310721H27.1329L24.2765 17.7ZM15.8629 0.310721L11.5066 12.2712L10.9911 9.69563L10.9916 9.69656L9.45399 1.87642C9.45399 1.87642 9.26808 0.310721 7.28639 0.310721H0.0845072L0 0.605163C0 0.605163 1.61819 0.938733 3.70374 1.99991C4.40517 2.35681 4.8919 3.01932 5.09192 3.7805L8.74977 17.7004H13.5108L20.7808 0.310721H15.8629ZM51.8042 17.7H56L52.3418 0.310257H48.6685C46.9723 0.310257 46.5592 1.60617 46.5592 1.60617L39.7441 17.7H44.5075L45.4601 15.117H51.269L51.8042 17.7ZM46.7761 11.5488L49.177 5.04132L50.5277 11.5488H46.7761ZM40.1014 4.49244L40.7535 0.758197C40.7535 0.758197 38.7413 0 36.6437 0C34.3761 0 28.9911 0.981936 28.9911 5.75672C28.9911 10.2492 35.3113 10.305 35.3113 12.6647C35.3113 15.0244 29.6423 14.6016 27.7714 13.1136L27.092 17.0181C27.092 17.0181 29.1324 18 32.2498 18C35.3681 18 40.0723 16.4003 40.0723 12.0465C40.0723 7.52523 33.6953 7.10427 33.6953 5.13854C33.6958 3.17234 38.146 3.42492 40.1014 4.49244Z" fill="white" fill-opacity="0.75"/>
<path id="Accent Vector" d="M10.9916 9.69639L10.9911 9.69546C10.9911 9.69546 7.35728 4.12619 4.77981 2.59258C2.20235 1.05898 0 0.604988 0 0.604988L0.0845072 0.310547H7.28639C9.26808 0.310547 9.45399 1.87625 9.45399 1.87625L10.9916 9.69639Z" fill="white"/>
</g>
</svg>
